<svg width="25" height="25" viewBox="0 0 25 25" fill="none" xmlns="http://www.w3.org/2000/svg">
<path d="M15.8896 5.55087L19.8896 9.55087" stroke="#001A72" stroke-width="1.5" stroke-linecap="round" stroke-linejoin="round"/>
<path d="M15.8895 5.55087L10.8911 10.5493C10.2324 11.208 9.71238 12.0075 9.55407 12.9254C9.39422 13.8522 9.34102 15.0024 9.88951 15.5509C10.438 16.0994 11.5882 16.0462 12.515 15.8863C13.4329 15.728 14.2324 15.208 14.8911 14.5493L19.8895 9.55087C19.8895 9.55087 22.8895 6.55087 20.8895 4.55087C18.8895 2.55087 15.8895 5.55087 15.8895 5.55087Z" stroke="#001A72" stroke-width="1.5" stroke-linecap="round" stroke-linejoin="round"/>
<path d="M21.4451 12.3634C21.4451 18.8634 19.4451 20.8634 12.9451 20.8634C6.44507 20.8634 4.44507 18.8634 4.44507 12.3634C4.44507 5.86337 6.44507 3.86337 12.9451 3.86337" stroke="#001A72" stroke-width="1.5" stroke-linecap="round" stroke-linejoin="round"/>
</svg>
