<svg width="25" height="25" viewBox="0 0 25 25" fill="none" xmlns="http://www.w3.org/2000/svg">
<path d="M19.4451 10.2484C19.4451 10.2484 19.9451 11.9745 19.9451 14.8634C19.9451 17.7523 19.5562 20.2801 19.1673 20.6412C18.7784 21.0023 16.0562 21.3634 12.9451 21.3634C9.83396 21.3634 7.11174 21.0023 6.72285 20.6412C6.33396 20.2801 5.94507 17.7523 5.94507 14.8634C5.94507 11.9745 6.44507 10.2484 6.44507 10.2484" stroke="#001A72" stroke-width="1.5" stroke-linecap="round" stroke-linejoin="round"/>
<path d="M12.9451 7.36337C9.38951 7.36337 6.2784 7.4467 5.83396 7.53004C5.38951 7.61337 4.94507 8.1967 4.94507 8.86337C4.94507 9.53004 5.38951 10.1134 5.83396 10.1967C5.92718 10.2142 6.13772 10.2317 6.44507 10.2484C7.60305 10.3113 10.1353 10.3634 12.9451 10.3634C15.7549 10.3634 18.2871 10.3113 19.4451 10.2484C19.7525 10.2317 19.963 10.2142 20.0562 10.1967C20.5007 10.1134 20.9451 9.53004 20.9451 8.86337C20.9451 8.1967 20.5007 7.61337 20.0562 7.53004C19.6118 7.4467 16.5007 7.36337 12.9451 7.36337Z" stroke="#001A72" stroke-width="1.5" stroke-linecap="round" stroke-linejoin="round"/>
<path d="M12.811 7.21334C13.3601 5.16443 16.5071 1.61522 18.0072 4.21334C19.5073 6.81158 14.8601 7.76251 12.811 7.21334Z" stroke="#001A72" stroke-width="1.5" stroke-linecap="round" stroke-linejoin="round"/>
<path d="M13.0074 7.21334C12.4583 5.16443 9.31126 1.61522 7.81124 4.21334C6.31114 6.81158 10.9583 7.76251 13.0074 7.21334Z" stroke="#001A72" stroke-width="1.5" stroke-linecap="round" stroke-linejoin="round"/>
</svg>
